<svg xmlns="http://www.w3.org/2000/svg" viewBox="0 0 24 24" fill="none">
  <path fill="#10A37F" d="M22.3 10.1a5.4 5.4 0 0 0-.6-5.1 5.5 5.5 0 0 0-5.9-2.3A5.5 5.5 0 0 0 6.6 1a5.5 5.5 0 0 0-3.7 5.2A5.4 5.4 0 0 0 .7 12a5.4 5.4 0 0 0 .6 5.1 5.5 5.5 0 0 0 5.9 2.3A5.5 5.5 0 0 0 17.4 23a5.5 5.5 0 0 0 3.7-5.2 5.4 5.4 0 0 0 1.2-7.7zM7.7 17.3a4 4 0 0 1-3.1-1.9 4 4 0 0 1 .1-4.1l.1-.1.5.3a6.7 6.7 0 0 0 2.3 4.4l.1.1zm1-1.5a6.6 6.6 0 0 1-1.6-4.5V11l.1-.1 4.2-2.4v4.8l-2.7 1.5zm7.7 1.3-4.2 2.4-4.2-2.4v-4.8l4.2 2.4 4.2-2.4zm-.4-9.2 4.2 2.4-.1.1v.1a6.6 6.6 0 0 1-1.6 4.5l-2.6-1.5V8.4l.1-.1zM12 6.4l-4.2 2.4-2.7-1.5.1-.1a4 4 0 0 1 4-2.1h.1l2.7 1.3zm8.1 8.9a4 4 0 0 1-1.9 2.6l-.1.1-.5-.3a6.7 6.7 0 0 0-2.3-4.4v-.1l2.7-1.5.1.1a4 4 0 0 1 2 3.5z"/>
</svg>
